<?xml version="1.0" encoding="UTF-8"?>
<svg width="400px" height="400px" viewBox="0 0 400 400" version="1.1" xmlns="http://www.w3.org/2000/svg" xmlns:xlink="http://www.w3.org/1999/xlink">
    <!-- Generator: Sketch 52.6 (67491) - http://www.bohemiancoding.com/sketch -->
    <title>Artboard</title>
    <desc>Created with Sketch.</desc>
    <defs>
        <circle id="path-1" cx="193.5" cy="193.5" r="193.5"></circle>
        <path d="M105.5,100 C168.681818,100 210.5,80.9090909 210.5,54.5454545 C210.5,28.1818182 163.598342,0 106.863636,0 C50.1289302,0 0.5,28.1818182 0.5,54.5454545 C0.5,80.9090909 42.3181818,100 105.5,100 Z" id="path-3"></path>
        <path d="M0,0 L82,0 L82,46 C82,68.6436747 63.6436747,87 41,87 L41,87 C18.3563253,87 2.77305038e-15,68.6436747 0,46 L0,0 Z" id="path-5"></path>
        <path d="M83.1538462,75 L83.1538462,66.7241379 C83.1538462,58.4398667 76.4381174,51.7241379 68.1538462,51.7241379 L61,51.7241379 C52.7157288,51.7241379 46,58.4398667 46,66.7241379 L46,75 L0,75 L8.08924146,18.8622875 C9.64927852,8.03594339 18.9261719,1.62201629e-14 29.8643364,1.42108547e-14 L109.990565,1.0658141e-14 C121.202871,1.85570018e-14 130.621404,8.43223421 131.856649,19.5762895 L138,75 L83.1538462,75 Z" id="path-7"></path>
    </defs>
    <g id="Artboard" stroke="none" stroke-width="1" fill="none" fill-rule="evenodd">
        <g id="CHARACTER-Copy-2" transform="translate(7.000000, 7.000000)">
            <mask id="mask-2" fill="white">
                <use xlink:href="#path-1"></use>
            </mask>
            <circle stroke="#50304A" stroke-width="6" cx="193.5" cy="193.5" r="196.5"></circle>
            <g mask="url(#mask-2)">
                <g transform="translate(29.000000, 38.000000)">
                    <g id="Oval-3" stroke="none" stroke-width="1" fill="none" fill-rule="evenodd" transform="translate(64.000000, 266.000000)">
                        <mask id="mask-4" fill="white">
                            <use xlink:href="#path-3"></use>
                        </mask>
                        <path stroke="#50304A" stroke-width="6" d="M105.5,103 C41.643874,103 -2.5,83.5930957 -2.5,54.5454545 C-2.5,25.079182 50.4467917,-3 106.863636,-3 C162.844606,-3 213.5,24.8373703 213.5,54.5454545 C213.5,83.5930957 169.356126,103 105.5,103 Z"></path>
                        <path d="M167.5,116 C214.134199,116 245,78.5818182 245,26.9090909 C245,-24.7636364 210.38211,-80 168.506494,-80 C126.630877,-80 90,-24.7636364 90,26.9090909 C90,78.5818182 120.865801,116 167.5,116 Z" fill="#C23052" mask="url(#mask-4)"></path>
                    </g>
                    <g id="Rectangle-7" stroke="none" stroke-width="1" fill="none" fill-rule="evenodd" transform="translate(129.000000, 216.000000)">
                        <mask id="mask-6" fill="white">
                            <use xlink:href="#path-5"></use>
                        </mask>
                        <path stroke="#50304A" stroke-width="6" d="M-3,-3 L85,-3 L85,46 C85,70.300529 65.300529,90 41,90 C16.699471,90 -3,70.300529 -3,46 L-3,-3 Z"></path>
                        <path d="M-1,-59 L89,7 L95.6191213,108.934468 C96.4182223,121.240624 87.089911,131.864534 74.7837547,132.663635 C69.0543067,133.035677 63.4017204,131.186441 59,127.5 L48.895295,119.03731 C29.6700902,102.936201 17.1960208,80.1995593 13.9456388,55.3341369 L-1,-59 Z" fill="#EEB8C5" mask="url(#mask-6)"></path>
                    </g>
                    <path d="M168.5,308.5 L168.5,368.5" id="Line-4" stroke="#50304A" stroke-width="6" fill="none" stroke-linecap="square"></path>
                    <path d="M84.4815828,99 L243.63542,99 L236.259601,34.8303772 C235.157206,25.2395391 227.037869,18 217.383883,18 L112.956895,18 C103.547912,18 95.556025,24.8864254 94.1655228,34.1920938 L84.4815828,99 Z" id="Rectangle-2" stroke="#50304A" stroke-width="6" fill="#BD3754" fill-rule="evenodd"></path>
                    <circle id="Oval-2" stroke="#50304A" stroke-width="6" fill="#F2CED7" fill-rule="evenodd" cx="85.5" cy="132.5" r="22.5"></circle>
                    <circle id="Oval-2" stroke="#50304A" stroke-width="6" fill="#F2CED7" fill-rule="evenodd" cx="250.5" cy="132.5" r="22.5"></circle>
                    <rect id="Rectangle-3" stroke="#50304A" stroke-width="6" fill="#BD3754" fill-rule="evenodd" x="157" y="3" width="24" height="30" rx="12"></rect>
                    <path d="M95.7029688,86.1743972 C130.237044,74.0581324 154.169388,68 167.5,68 C180.830612,68 204.762955,74.0581323 239.297031,86.174397 L239.297031,86.1743959 C245.708524,88.4238653 250,94.4774709 250,101.272127 L250,171.5 C250,216.511207 213.511207,253 168.5,253 L166.5,253 C121.488793,253 85,216.511207 85,171.5 L85.0000018,101.272126 C85.0000018,94.4774707 89.2914772,88.4238661 95.7029688,86.1743972 Z" id="Rectangle" stroke="#50304A" stroke-width="6" fill="#F2CED7" fill-rule="evenodd"></path>
                    <path d="M132.018107,83.0494825 C156.529253,75.0164942 173.67727,71 183.462158,71 C193.455502,71 211.129041,75.18945 236.482774,83.56835 L236.482773,83.568352 C243.036198,85.7341272 247.462158,91.8582118 247.462158,98.7602372 L247.462158,163.635869 C247.462158,191.487217 234.051597,217.634772 211.432622,233.885298 L195.962158,245 C178.999739,257.186593 155.369796,253.31502 143.183203,236.352601 C139.521404,231.255773 137.185595,225.32777 136.386353,219.10301 L121.131261,100.291421 C120.153524,92.6764911 124.72247,85.440467 132.018107,83.0494825 Z" id="Rectangle" stroke="none" fill="#EEB8C5" fill-rule="evenodd"></path>
                    <path d="M0,62 L23.5674555,73.2481038 C37.0189292,79.6681253 51.735421,83 66.6404142,83 L157,83 L157,83 C157,91.836556 149.836556,99 141,99 L67.1849337,99 C52.5726126,99 38.1378261,95.7976522 24.8963871,89.618314 L14.4989302,84.7661674 C5.65371422,80.6384 1.19537266e-15,71.7609585 0,62 Z" id="Rectangle-4" stroke="#50304A" stroke-width="6" fill="#299B47" fill-rule="evenodd"></path>
                    <g id="Combined-Shape" stroke="none" stroke-width="1" fill="none" fill-rule="evenodd" transform="translate(108.000000, 21.000000)">
                        <mask id="mask-8" fill="white">
                            <use xlink:href="#path-7"></use>
                        </mask>
                        <path stroke="#50304A" stroke-width="6" d="M80.1538462,78 L80.1538462,66.7241379 C80.1538462,60.0967209 74.7812632,54.7241379 68.1538462,54.7241379 L61,54.7241379 C54.372583,54.7241379 49,60.0967209 49,66.7241379 L49,78 L-3.46327479,78 L5.11991033,18.4344176 C6.89267971,6.13175386 17.434604,-3 29.8643364,-3 L109.990565,-3 C122.731821,-3 133.434701,6.58208432 134.838388,19.2457835 L141.350903,78 L80.1538462,78 Z"></path>
                        <path d="M42.343393,6.87171804e-31 L137.850837,3.55271368e-15 C149.086612,1.48873526e-15 158.516952,8.4665475 159.723601,19.6373416 L167,87 L11,87 L20.5571441,18.9406929 C22.0823816,8.07901641 31.3751494,2.01483365e-15 42.343393,0 Z" fill="#DFE6EB" mask="url(#mask-8)"></path>
                    </g>
                    <path d="M150,99 L197,99" id="Line-2" stroke="#50304A" stroke-width="6" fill="none" stroke-linecap="square"></path>
                    <path d="M108,117.638775 L108,117.638775 C117.069501,111.808382 127.835016,109.194491 138.568347,110.216713 L143,110.638775" id="Line-3" stroke="#50304A" stroke-width="6" fill="none" stroke-linecap="round"></path>
                    <path d="M192,118.443264 L192,118.443264 C201.547199,110.805504 213.889392,107.582761 225.95189,109.577885 L229,110.082039" id="Line-3" stroke="#50304A" stroke-width="6" fill="none" stroke-linecap="round" transform="translate(210.500000, 113.721632) scale(-1, 1) translate(-210.500000, -113.721632) "></path>
                    <path d="M152,60.4986996 L152,60.4986996 C164.769608,54.7523761 179.338425,54.5007826 192.298829,59.8027662 L194,60.4986996" id="Line-3" stroke="#50304A" stroke-width="6" fill="none" stroke-linecap="round" transform="translate(173.000000, 58.249350) scale(-1, 1) translate(-173.000000, -58.249350) "></path>
                    <path d="M129,123 L129,123 C136.731986,123 143,129.268014 143,137 L143,147 L115,151 L115,137 C115,129.268014 121.268014,123 129,123 Z" id="Rectangle-5" stroke="#50304A" stroke-width="6" fill="#FFFFFF" fill-rule="evenodd"></path>
                    <path d="M205.5,123 L205.5,123 C214.060414,123 221,129.939586 221,138.5 L221,147 L189,147 L189.354727,138.486563 C189.715366,129.831218 196.837145,123 205.5,123 Z" id="Rectangle-5" stroke="#50304A" stroke-width="6" fill="#FFFFFF" fill-rule="evenodd" transform="translate(205.000000, 135.000000) scale(-1, 1) translate(-205.000000, -135.000000) "></path>
                    <path d="M108,154.638775 L111.050225,153.49214 C118.979562,150.511356 127.27898,148.627915 135.718229,147.894067 L146,147" id="Line-3" stroke="#50304A" stroke-width="6" fill="none" stroke-linecap="round"></path>
                    <path d="M187,147 L227,147" id="Line-3" stroke="#50304A" stroke-width="6" fill="none" stroke-linecap="round" transform="translate(207.000000, 147.500000) scale(-1, 1) translate(-207.000000, -147.500000) "></path>
                    <path d="M126,196 C123.333333,191.333333 122,186.333333 122,181 C122,175.666667 126.666667,169 136,161" id="Path-5" stroke="#DCA6B3" stroke-width="6" fill="none" stroke-linecap="round"></path>
                    <path d="M204,196 C201.333333,191.333333 200,186.333333 200,181 C200,175.666667 204.666667,169 214,161" id="Path-5" stroke="#DCA6B3" stroke-width="6" fill="none" stroke-linecap="round" transform="translate(207.000000, 178.500000) scale(-1, 1) translate(-207.000000, -178.500000) "></path>
                    <path d="M155,158 C157.724529,161.333333 161.572327,163 166.543396,163 C171.514465,163 175.362264,161.333333 178.086793,158" id="Path-2" stroke="#50304A" stroke-width="6" fill="none" stroke-linecap="round"></path>
                    <path d="M170.995696,177 C174.324247,176.333333 179.649928,176.333333 186.97274,177 C197.956958,178 200.890244,192 206.944046,192 C212.997848,192 227.913917,191 233.905308,181 C237.89957,174.333333 242.892396,155.333333 248.883788,124 L253.876614,184 C257.870875,223.333333 251.213773,245.333333 233.905308,250 C216.596844,254.666667 195.626973,264 170.995696,278 C144.607656,264 122.142163,254.666667 103.599216,250 C85.0562696,245.333333 77.924367,223.333333 82.2035086,184 L85.1190818,120 C93.1600299,154 99.3200748,174.333333 103.599216,181 C110.017929,191 125.997848,192 132.483422,192 C138.968996,192 142.11149,178 153.87913,177 C161.724222,176.333333 167.429745,176.333333 170.995696,177 Z" id="Combined-Shape" stroke="#50304A" stroke-width="6" fill="#B68464" fill-rule="evenodd"></path>
                    <path d="M154,199 L184,199 L184,201 C184,209.284271 177.284271,216 169,216 L169,216 C160.715729,216 154,209.284271 154,201 L154,199 Z" id="Rectangle-6" stroke="#50304A" stroke-width="6" fill="#FF246B" fill-rule="evenodd"></path>
                    <path d="M139,201.441286 C139,203.441286 140,204.441286 142,204.441286 C144.555598,204.441286 147.836871,197.184529 161.425585,195.034584 C163.788576,194.660722 166.463252,197.441286 169.5,197.441286 C173.449366,197.441286 176.786338,194.812433 179.621744,195.411725 C191.504101,197.923178 194.577956,204.441286 197,204.441286 C199,204.441286 200,203.441286 200,201.441286" id="Path-4" stroke="#50304A" stroke-width="6" fill="none" stroke-linecap="round"></path>
                    <g id="Glasses" stroke="none" stroke-width="1" fill="none" fill-rule="evenodd" transform="translate(71.000000, 113.000000)">
                        <path d="M36,71 C65,71 83,44.882251 83,25 C83,5.11774901 60.882251,0 41,0 C21.117749,0 0,6 0,29 C1.7190079e-15,52 7,71 36,71 Z" id="Oval" stroke="#50304A" stroke-width="6" fill-opacity="0.350000024" fill="#FFFFFF"></path>
                        <path d="M145,71 C174,71 192,44.882251 192,25 C192,5.11774901 169.882251,0 150,0 C130.117749,0 109,6 109,29 C109,52 116,71 145,71 Z" id="Oval" stroke="#50304A" stroke-width="6" fill-opacity="0.350000024" fill="#FFFFFF" transform="translate(150.500000, 35.500000) scale(-1, 1) translate(-150.500000, -35.500000) "></path>
                        <path d="M78,9.5 L114,9.5" id="Line" stroke="#50304A" stroke-width="6" stroke-linecap="square"></path>
                        <path d="M84,29 L84,29 C87.7129288,22.5321021 95.9661196,20.2987585 102.434017,24.0116873 C104.4988,25.1969861 106.213505,26.9071141 107.404319,28.9687214 L108,30" id="Line" stroke="#50304A" stroke-width="6" stroke-linecap="square"></path>
                    </g>
                    <path d="M87.7535714,270.406994 L105.131377,265.322681 C108.667572,264.288078 112.453086,265.802429 114.300049,268.990502 C120.15357,279.094367 125.053553,290.669224 129,303.715073 C133.666667,319.14177 138.333333,339.978021 143,366.223827 C125.463061,363.729926 112.796395,361.396593 105,359.223827 C97.2036052,357.051061 89.5369385,353.717728 82,349.223827 L82,278.085116 C82,274.532041 84.3434532,271.40471 87.7535714,270.406994 Z" id="Rectangle-8" stroke="#50304A" stroke-width="6" fill="#7B7272" fill-rule="evenodd"></path>
                    <g id="Group-2" stroke="none" stroke-width="1" fill="none" fill-rule="evenodd" transform="translate(90.000000, 319.000000)">
                        <path d="M35,45.0815512 L35,49 L38.7827271,46.1039098 L35,45.0815512 Z M4,36.7031728 L1.50118888,36.0278184 L-0.0642501872,41.8200029 L4,42.9184488 L4,36.7031728 Z" id="Rectangle-9" stroke="#50304A" stroke-width="6" fill="#7B7272"></path>
                        <path d="M4,27 L35,27 L35,19 C35,16.2385763 32.7614237,14 30,14 L9,14 C6.23857625,14 4,16.2385763 4,19 L4,27 Z" id="Rectangle-9" stroke="#50304A" stroke-width="6" fill="#FFFFFF"></path>
                        <g id="Group-3" transform="translate(14.000000, 0.000000)">
                            <path d="M1,0 L9,0 C9.55228475,-1.01453063e-16 10,0.44771525 10,1 L10,7 L0,7 L0,1 C-6.76353751e-17,0.44771525 0.44771525,1.01453063e-16 1,0 Z" id="Rectangle-11" stroke="#50304A" stroke-width="4" fill="#FF6FAF"></path>
                            <rect id="Rectangle-11" stroke="#50304A" stroke-width="4" fill="#FEC45D" x="0" y="7" width="10" height="20"></rect>
                            <path d="M5,10 L5,24" id="Line-5" stroke="#D6A44C" stroke-width="2" stroke-linecap="square"></path>
                        </g>
                    </g>
                    <path d="M201.753571,271.406994 L219.131377,266.322681 C222.667572,265.288078 226.453086,266.802429 228.300049,269.990502 C234.15357,280.094367 239.053553,291.669224 243,304.715073 C247.666667,320.14177 252.333333,340.978021 257,367.223827 C239.463061,364.729926 226.796395,362.396593 219,360.223827 C211.203605,358.051061 203.536939,354.717728 196,350.223827 L196,279.085116 C196,275.532041 198.343453,272.40471 201.753571,271.406994 Z" id="Rectangle-8" stroke="#50304A" stroke-width="6" fill="#7B7272" fill-rule="evenodd" transform="translate(226.500000, 316.611913) scale(-1, 1) translate(-226.500000, -316.611913) "></path>
                    <path d="M125.678918,263 C126.283904,272.333333 129.253064,280.333333 134.586397,287 C139.919731,293.666667 147.283904,300.333333 156.678918,307 C130.437415,315.973689 115.073242,315.973689 110.586397,307 C106.099553,298.026311 111.130393,283.359645 125.678918,263 Z" id="Triangle" stroke="#50304A" stroke-width="6" fill="#F05076" fill-rule="evenodd"></path>
                    <path d="M200.678918,263 C201.283904,272.333333 204.253064,280.333333 209.586397,287 C214.919731,293.666667 222.283904,300.333333 231.678918,307 C205.437415,315.973689 190.073242,315.973689 185.586397,307 C181.099553,298.026311 186.130393,283.359645 200.678918,263 Z" id="Triangle" stroke="#50304A" stroke-width="6" fill="#C23052" fill-rule="evenodd" transform="translate(207.839459, 288.365133) scale(-1, 1) translate(-207.839459, -288.365133) "></path>
                    <path d="M160,286 C162,288.666667 165.166667,290 169.5,290 C173.833333,290 177,288.666667 179,286" id="Path-6" stroke="#50304A" stroke-width="6" fill="none" stroke-linecap="round"></path>
                    <g id="Group-2-Copy" stroke="none" stroke-width="1" fill="none" fill-rule="evenodd" transform="translate(230.000000, 349.000000) scale(-1, 1) translate(-230.000000, -349.000000) translate(211.000000, 330.000000)">
                        <path d="M35,34.0815512 L35,38 L38.7827271,35.1039098 L35,34.0815512 Z M4,25.7031728 L1.50118888,25.0278184 L-0.0642501872,30.8200029 L4,31.9184488 L4,25.7031728 Z M0.697969841,28 C0.904611194,27.2353471 1.16728768,26.2633599 1.50118888,25.0278184 L1.50120396,25.0278225 C1.5012681,25.0278398 1.5012681,25.0278398 1.50138884,25.0278725 C1.50337345,25.0284088 1.50337345,25.0284088 1.50898026,25.0299242 C1.52562718,25.0344234 1.52562718,25.0344234 1.55676287,25.0428384 C1.64076742,25.0655423 1.64076742,25.0655423 1.78272708,25.1039098 L1,28 L0.697969841,28 Z" id="Rectangle-9" stroke="#50304A" stroke-width="6" fill="#7B7272"></path>
                        <path d="M4,16 L35,16 L35,8 C35,5.23857625 32.7614237,3 30,3 L9,3 C6.23857625,3 4,5.23857625 4,8 L4,16 Z" id="Rectangle-9" stroke="#50304A" stroke-width="6"></path>
                    </g>
                </g>
            </g>
        </g>
    </g>
</svg>